 <svg version="1.0" xmlns="http://www.w3.org/2000/svg"  width="262.000000pt" height="138.000000pt" viewBox="0 0 262.000000 138.000000"  preserveAspectRatio="xMidYMid meet">  <g transform="translate(0.000000,138.000000) scale(0.100000,-0.100000)" fill="#ffffff" stroke="none"> <path d="M1840 1275 c-8 -10 -34 -26 -58 -36 l-44 -19 7 -278 c5 -172 4 -290 -2 -312 l-10 -35 66 0 66 0 0 152 c0 83 -2 150 -5 148 -3 -2 -3 72 -2 163 2 92 2 182 0 201 -3 32 -4 33 -18 16z m-28 -247 c6 -190 -1 -378 -13 -378 -5 0 -9 122 -9 270 0 149 4 270 9 270 4 0 10 -73 13 -162z"/> <path d="M185 1010 c-129 -29 -155 -153 -43 -208 24 -12 76 -31 117 -42 88 -26 126 -57 116 -98 -9 -38 -22 -50 -66 -64 -30 -8 -52 -8 -94 1 -71 16 -111 50 -129 109 l-15 47 0 -89 c-1 -80 1 -88 13 -71 13 18 17 19 63 5 157 -46 280 -6 299 96 12 67 -31 104 -173 145 -109 32 -133 49 -133 94 0 44 26 65 83 65 73 0 123 -25 153 -76 14 -24 28 -44 30 -44 2 0 4 29 4 65 l0 65 -22 -14 c-20 -12 -29 -12 -63 -1 -55 18 -104 23 -140 15z"/> <path d="M577 999 l-37 -20 17 -26 18 -27 3 27 c4 32 31 49 77 49 86 0 97 -26 94 -218 -2 -131 -1 -138 20 -155 38 -31 171 -55 171 -31 0 4 -17 7 -37 7 l-38 0 -5 150 c-4 103 -10 159 -20 180 -33 67 -185 104 -263 64z m234 -212 c2 -72 -1 -111 -9 -119 -9 -9 -12 18 -12 117 0 157 17 159 21 2z"/> <path d="M1348 1003 c-44 -18 -45 -22 -17 -54 11 -13 18 -18 14 -11 -20 39 36 74 103 64 56 -8 62 -28 62 -197 0 -144 1 -152 23 -172 12 -11 37 -25 56 -32 42 -14 121 -15 121 -1 0 6 -10 8 -24 4 -14 -3 -34 -3 -45 1 -20 6 -21 14 -21 146 0 192 -17 227 -121 255 -68 18 -104 17 -151 -3z m226 -115 c9 -36 7 -216 -3 -222 -16 -10 -21 23 -21 135 0 102 10 138 24 87z"/> <path d="M1969 1011 c-40 -13 -75 -39 -87 -67 -18 -39 -14 -43 8 -7 39 65 123 83 160 36 20 -26 21 -36 18 -203 l-3 -175 60 0 60 0 -3 165 c-4 188 -13 217 -73 236 -52 18 -111 24 -140 15z m171 -233 c0 -117 -8 -154 -24 -112 -8 22 -8 249 1 257 16 17 23 -26 23 -145z"/> <path d="M1060 995 c-8 -10 -32 -26 -53 -35 l-38 -17 -2 -174 -2 -174 60 0 60 0 -3 157 -3 156 44 47 c33 34 51 46 69 43 21 -3 23 -8 22 -51 0 -26 2 -46 5 -45 3 2 23 10 44 18 73 28 34 90 -57 90 -49 0 -57 -3 -85 -35 -17 -20 -32 -41 -33 -48 0 -7 -4 10 -7 37 -6 46 -7 48 -21 31z m-24 -212 c-1 -88 -5 -127 -13 -130 -9 -3 -13 29 -15 117 -3 131 -2 140 16 140 9 0 12 -33 12 -127z"/> <path d="M1425 831 c-143 -42 -195 -80 -195 -144 0 -51 15 -76 55 -93 68 -28 158 -12 200 37 l20 23 -30 -20 c-43 -30 -62 -35 -89 -24 -43 16 -56 111 -24 172 4 10 33 25 63 33 30 9 57 21 60 26 4 5 5 9 3 8 -2 0 -30 -8 -63 -18z m-125 -128 c0 -10 3 -28 6 -40 8 -29 -11 -30 -26 -3 -12 22 -5 60 11 60 5 0 9 -8 9 -17z"/> <path d="M607 813 c-103 -34 -137 -66 -137 -126 0 -34 6 -53 24 -74 23 -26 29 -28 99 -28 61 0 81 4 103 21 15 11 30 26 32 33 3 8 -9 3 -26 -9 -65 -48 -122 -16 -122 69 0 66 17 93 70 111 71 25 78 28 55 29 -11 0 -55 -11 -98 -26z m-69 -150 l-3 -28 -19 28 c-18 27 -18 28 0 48 l19 21 3 -21 c2 -11 2 -33 0 -48z"/> <path d="M2424 726 c-50 -23 -73 -48 -110 -116 -17 -31 -19 -66 -24 -298 l-5 -262 60 0 60 0 -3 252 c-3 269 4 334 41 390 20 28 29 33 70 36 52 3 70 -15 48 -49 -14 -23 -7 -24 30 -2 35 21 33 31 -11 55 -47 24 -95 23 -156 -6z m-63 -383 c-1 -208 -9 -275 -27 -230 -3 9 -4 112 -2 229 3 191 9 250 25 234 3 -3 5 -108 4 -233z"/> <path d="M2100 550 c-24 -24 -25 -38 -4 -68 18 -27 55 -29 77 -4 23 26 21 58 -5 76 -30 21 -44 20 -68 -4z"/> <path d="M1286 447 c-61 -38 -80 -86 -54 -142 16 -36 60 -60 153 -85 101 -26 129 -46 133 -93 6 -70 -79 -105 -177 -72 -58 19 -97 60 -107 111 -11 57 -20 25 -16 -54 3 -62 6 -71 16 -56 12 16 17 15 81 -6 146 -49 281 8 278 116 -1 19 -9 45 -20 56 -21 25 -98 60 -167 77 -100 25 -133 58 -114 114 12 33 40 42 113 34 66 -7 99 -28 122 -78 10 -21 21 -39 24 -39 3 0 5 29 5 64 -1 57 -3 62 -18 52 -13 -7 -30 -7 -65 4 -86 25 -143 24 -187 -3z"/> <path d="M1766 450 c-99 -31 -146 -91 -146 -188 0 -70 34 -146 80 -181 118 -86 288 -55 335 62 19 45 6 49 -15 4 -33 -69 -125 -97 -200 -59 -91 45 -111 240 -34 332 22 26 33 30 74 30 41 0 52 -4 70 -27 14 -18 20 -38 18 -61 -3 -33 -4 -34 -96 -64 -52 -16 -91 -32 -88 -35 8 -9 276 81 276 92 0 20 -60 76 -102 95 -54 23 -97 23 -172 0z m-62 -190 c-1 -54 3 -97 7 -94 4 2 7 -5 6 -16 -2 -26 -8 -25 -31 6 -26 37 -33 131 -12 172 9 18 20 32 24 32 4 0 7 -45 6 -100z"/> <path d="M2220 460 c0 -5 11 -10 25 -10 14 0 25 5 25 10 0 6 -11 10 -25 10 -14 0 -25 -4 -25 -10z"/> <path d="M2420 460 c0 -5 7 -10 15 -10 8 0 15 5 15 10 0 6 -7 10 -15 10 -8 0 -15 -4 -15 -10z"/> <path d="M2165 433 c-11 -8 -34 -21 -52 -29 l-32 -14 -3 -170 -3 -170 60 0 60 0 -3 132 c-5 275 -4 269 -27 251z m-17 -209 c-4 -148 -22 -156 -26 -12 -3 112 3 157 19 141 5 -5 8 -60 7 -129z"/> </g> </svg> 