 <svg version="1.0" xmlns="http://www.w3.org/2000/svg"  width="262.000000pt" height="138.000000pt" viewBox="0 0 262.000000 138.000000"  preserveAspectRatio="xMidYMid meet">  <g transform="translate(0.000000,138.000000) scale(0.050000,-0.050000)" fill="#000000" stroke="none"> <path d="M3690 2560 c-7 -12 -57 -43 -111 -70 l-98 -50 -5 -625 -6 -625 136 -1 c110 -1 133 4 124 28 -6 15 -11 329 -11 696 1 367 -3 667 -8 667 -5 0 -14 -9 -21 -20z"/> <path d="M309 2012 c-292 -128 -203 -379 171 -481 246 -67 302 -120 252 -239 -85 -205 -485 -111 -561 131 l-27 87 -2 -179 c-2 -158 1 -174 26 -140 26 35 36 36 115 13 305 -91 518 -43 590 131 63 150 -23 258 -259 326 -289 84 -334 112 -334 202 0 180 313 188 447 12 29 -38 53 -79 53 -92 0 -13 9 -23 20 -23 11 0 20 57 20 130 0 125 -2 129 -39 106 -32 -20 -64 -18 -169 10 -152 40 -221 42 -303 6z"/> <path d="M1155 2008 c-86 -37 -87 -41 -38 -106 l37 -47 12 61 c14 68 61 92 173 87 135 -5 151 -43 155 -393 2 -170 9 -319 17 -332 40 -64 369 -138 369 -83 0 8 -34 15 -75 15 l-75 0 -10 314 c-11 353 -26 393 -168 463 -104 52 -301 62 -397 21z"/> <path d="M2340 2026 c-42 -15 -119 -88 -145 -136 -12 -23 14 -8 63 36 120 108 173 98 169 -32 -2 -53 2 -93 10 -90 7 3 47 19 88 35 168 65 -14 249 -185 187z"/> <path d="M2685 2006 c-75 -39 -81 -65 -24 -117 37 -33 39 -33 27 -2 -23 61 47 113 151 113 165 0 170 -9 181 -389 11 -360 6 -345 134 -402 73 -33 266 -39 266 -9 0 10 -26 14 -60 7 -109 -22 -120 7 -120 315 0 334 -21 395 -155 460 -118 57 -313 69 -400 24z"/> <path d="M3910 2013 c-33 -15 -82 -53 -110 -84 l-50 -56 74 55 c242 181 320 82 312 -398 l-6 -340 120 0 120 0 -6 329 c-8 368 -24 426 -132 471 -104 44 -254 54 -322 23z"/> <path d="M2118 1988 c-15 -19 -63 -49 -106 -67 l-78 -33 -2 -349 -2 -349 120 -1 120 -2 -5 410 c-5 440 -5 441 -47 391z"/> <path d="M1217 1629 c-265 -85 -360 -251 -230 -401 82 -96 352 -88 444 13 41 46 16 51 -40 8 -103 -78 -210 -23 -226 117 -16 142 31 223 153 263 99 33 128 52 77 50 -14 0 -94 -23 -178 -50z"/> <path d="M2780 1642 c-283 -91 -385 -222 -299 -383 71 -134 368 -133 489 1 l40 45 -70 -42 c-151 -92 -250 -33 -246 146 4 145 28 182 146 221 97 32 126 51 75 49 -14 -1 -74 -17 -135 -37z"/> <path d="M4890 1476 c-100 -35 -178 -106 -241 -219 l-59 -107 -10 -525 -10 -525 120 0 120 0 0 555 c0 704 29 805 232 805 82 0 111 -38 77 -101 -25 -47 -15 -48 62 -8 158 81 -99 192 -291 125z"/> <path d="M4200 1100 c-48 -48 -50 -77 -9 -136 38 -53 111 -57 156 -7 95 104 -47 243 -147 143z"/> <path d="M2590 908 c-257 -134 -186 -368 140 -458 261 -72 310 -103 310 -202 0 -246 -479 -197 -560 57 -43 135 -56 118 -53 -65 2 -88 10 -160 18 -160 8 0 15 9 15 20 0 29 68 25 195 -12 277 -81 531 32 529 234 -2 132 -99 206 -349 269 -190 48 -255 92 -255 176 0 202 355 177 470 -34 56 -103 70 -92 70 57 0 73 -9 130 -20 130 -11 0 -20 -9 -20 -20 0 -29 -82 -25 -180 10 -110 39 -234 38 -310 -2z"/> <path d="M3546 911 c-286 -89 -390 -345 -250 -613 162 -310 650 -318 774 -13 37 91 12 100 -30 11 -65 -138 -260 -196 -400 -121 -258 139 -196 725 76 725 172 0 260 -225 104 -265 -107 -27 -302 -100 -293 -109 20 -20 552 155 553 182 3 151 -314 272 -534 203z"/> <path d="M4330 866 c-22 -16 -69 -43 -104 -58 l-64 -28 -6 -340 -6 -340 120 0 120 0 -5 265 c-11 548 -10 536 -55 501z"/> </g> </svg> 